<?xml version="1.0" encoding="utf-8"?>
<!-- Generator: Adobe Illustrator 16.0.0, SVG Export Plug-In . SVG Version: 6.00 Build 0)  -->
<!DOCTYPE svg PUBLIC "-//W3C//DTD SVG 1.1//EN" "http://www.w3.org/Graphics/SVG/1.1/DTD/svg11.dtd">
<svg version="1.1" id="Layer_1" xmlns="http://www.w3.org/2000/svg" xmlns:xlink="http://www.w3.org/1999/xlink" x="0px" y="0px"
	 width="256px" height="256px" viewBox="0 0 256 256" enable-background="new 0 0 256 256" xml:space="preserve">
<g id="background_1_">
</g>
<g id="Layer_1_1_">
	<title>256</title>
	<desc>Created with Sketch.</desc>
	<path id="Path" fill="#4FABB0" d="M147.625,164c3.869,0,7.352-1.258,9.77-3.676c2.516-2.321,3.967-5.61,3.967-9.286v-8.319
		c0-0.387-0.098-2.611-1.646-5.125c-1.45-2.322-4.546-5.32-11.026-6.578l-36.662-8.319c-4.45-0.967-13.542-3.095-13.542-8.996
		v-6.964c-0.097-3.772,1.354-6.094,2.708-7.448c1.645-1.741,4.063-2.805,6.288-2.805h50.879V93h-50.879
		c-3.095,0-6.481,1.451-8.802,3.966c-1.741,1.741-3.772,4.933-3.676,9.77v6.964c0,2.128,0.677,4.063,2.031,5.707
		c1.064,1.354,2.612,2.515,4.546,3.482c3.385,1.741,7.352,2.708,9.673,3.192l36.758,8.319v0.097
		c9.576,1.741,9.866,7.739,9.866,8.126v8.415c0,5.61-4.256,9.479-10.253,9.479H95.583V164H147.625z"/>
	<polygon id="Triangle-5" fill="none" stroke="#4FABB0" stroke-miterlimit="10" points="41,79.75 128.406,29 215.811,79.75 
		215.811,176.904 128.406,226 41,176.904 	"/>
	<polygon id="Triangle-5_1_" fill="none" stroke="#4FABB0" stroke-miterlimit="10" points="45.494,72.314 136.99,29.375 
		219.641,87.55 211.172,184.334 119.821,225.625 37.027,169.1 	"/>
	<polygon id="Triangle-5_2_" fill="none" stroke="#4FABB0" stroke-miterlimit="10" points="50.62,65.298 145.51,30.497 
		222.775,95.653 205.904,191.332 111.301,224.504 33.749,160.977 	"/>
	
		<linearGradient id="Triangle-5_5_" gradientUnits="userSpaceOnUse" x1="5.6875" y1="119.8613" x2="200.8037" y2="119.8613" gradientTransform="matrix(1 0 0 -1 24.9448 247.3594)">
		<stop  offset="0" style="stop-color:#02AAB0"/>
		<stop  offset="1" style="stop-color:#6DC497"/>
	</linearGradient>
	<polygon id="Triangle-5_3_" fill="none" stroke="url(#Triangle-5_5_)" stroke-miterlimit="10" points="56.337,58.755 
		153.898,32.356 225.191,104 200.046,197.844 102.912,222.645 31.191,152.6 	"/>
	<polygon id="Triangle-5_4_" fill="none" stroke="#4FABB0" stroke-miterlimit="10" points="62.603,52.735 162.096,34.94 
		226.871,112.524 193.643,203.82 94.716,220.061 29.374,144.031 	"/>
</g>
</svg>
