<?xml version="1.0" encoding="utf-8"?>
<!-- Generator: Adobe Illustrator 16.0.0, SVG Export Plug-In . SVG Version: 6.00 Build 0)  -->
<!DOCTYPE svg PUBLIC "-//W3C//DTD SVG 1.1//EN" "http://www.w3.org/Graphics/SVG/1.1/DTD/svg11.dtd">
<svg version="1.1" id="Layer_1" xmlns="http://www.w3.org/2000/svg" xmlns:xlink="http://www.w3.org/1999/xlink" x="0px" y="0px"
	 width="198.635px" height="198.152px" viewBox="28.804 28.421 198.635 198.152"
	 enable-background="new 28.804 28.421 198.635 198.152" xml:space="preserve">
<title>256</title>
<desc>Created with Sketch.</desc>
<path id="Path" fill="#FFFFFF" d="M147.625,164c3.869,0,7.352-1.258,9.77-3.676c2.515-2.321,3.966-5.61,3.966-9.286v-8.319
	c0-0.387-0.097-2.611-1.645-5.126c-1.451-2.321-4.546-5.32-11.027-6.577l-36.661-8.319c-4.45-0.967-13.542-3.096-13.542-8.996
	v-6.964c-0.097-3.772,1.354-6.094,2.708-7.448c1.645-1.741,4.063-2.805,6.288-2.805h50.88V93h-50.88
	c-3.095,0-6.481,1.451-8.802,3.966c-1.741,1.741-3.772,4.934-3.676,9.77v6.964c0,2.128,0.677,4.062,2.031,5.707
	c1.064,1.354,2.612,2.515,4.546,3.482c3.386,1.741,7.352,2.708,9.673,3.192l36.758,8.319v0.097c9.576,1.741,9.866,7.739,9.866,8.126
	v8.415c0,5.61-4.256,9.479-10.253,9.479H95.583V164H147.625z"/>
<polygon id="Triangle-5" fill="none" stroke="#FFFFFF" points="41,79.75 128.405,29 215.811,79.75 215.811,176.904 128.405,226 
	41,176.904 "/>
<polygon id="Triangle-5_1_" fill="none" stroke="#FFFFFF" points="45.494,72.314 136.99,29.375 219.641,87.55 211.172,184.334 
	119.821,225.625 37.027,169.099 "/>
<polygon id="Triangle-5_2_" fill="none" stroke="#FFFFFF" points="50.62,65.298 145.51,30.497 222.775,95.653 205.904,191.332 
	111.301,224.504 33.749,160.977 "/>
<polygon id="Triangle-5_3_" fill="none" stroke="#FFFFFF" points="56.337,58.755 153.899,32.356 225.191,104 200.046,197.844 
	102.912,222.644 31.191,152.6 "/>
<polygon id="Triangle-5_4_" fill="none" stroke="#FFFFFF" points="62.603,52.735 162.095,34.94 226.871,112.524 193.643,203.82 
	94.717,220.06 29.374,144.031 "/>
</svg>
